<svg version="1.2" xmlns="http://www.w3.org/2000/svg" viewBox="0 0 512 512" width="512" height="512">
	<title>arrow-down</title>
	<style>
		.s0 { fill: #ffffff } 
	</style>
	<path id="Path 0" class="s0" d="m87.1 162.3c-1.8 1.2-4.2 3.5-5.2 5.2-1.2 1.9-1.9 5-1.9 8.5 0 4.6 0.4 6.2 2.9 9.5 1.6 2.2 38.8 39.8 82.7 83.6 44 43.8 81 80.4 82.4 81.3 1.6 1 4.6 1.6 8 1.6 3.4 0 6.4-0.6 8-1.6 1.4-0.9 38.4-37.5 82.4-81.3 43.9-43.8 81.1-81.4 82.7-83.6 2.5-3.3 2.9-4.9 2.9-9.5 0-3.9-0.7-6.5-2.3-8.9-1.2-1.8-3.6-4.2-5.2-5.2-1.9-1.2-5-1.9-8.5-1.9-3.5 0-6.4 0.6-8 1.6-1.4 0.9-36.1 35.2-77.3 76.3l-74.7 74.6c-115.9-115.7-150.6-150-152-150.9-1.6-1-4.5-1.6-8-1.6-4 0-6.4 0.6-8.9 2.3z"/>
</svg>